<svg width="100" height="100" viewBox="0 0 100 100" fill="none" xmlns="http://www.w3.org/2000/svg">
<path d="M50 0C32.5448 0 17.1788 8.94444 8.23512 22.5C8.23512 22.5 20.6462 33.5 49.9999 33.5C79.3537 33.5 91.7649 22.5 91.7649 22.5C82.8212 8.94444 67.4552 0 50 0Z" fill="#060709"/>
<path d="M1.57522 62.5C7.12575 84.0653 26.702 100 50 100C73.298 100 92.8742 84.0653 98.4248 62.5C98.4248 62.5 87.8537 57 50 57C12.1463 57 1.57522 62.5 1.57522 62.5Z" fill="#060709"/>
<path d="M8.23512 22.5C3.02981 30.3895 0 39.8409 0 50C0 54.3162 0.546913 58.5047 1.57522 62.5C1.57522 62.5 12.1463 57 50 57L49.9999 33.5C20.6462 33.5 8.23512 22.5 8.23512 22.5Z" fill="#D8C29D"/>
<path d="M100 50C100 39.8409 96.9702 30.3895 91.7649 22.5C91.7649 22.5 79.3537 33.5 49.9999 33.5L50 57C87.8537 57 98.4248 62.5 98.4248 62.5C99.4531 58.5047 100 54.3162 100 50Z" fill="#E4D6B1"/>
<path fill-rule="evenodd" clip-rule="evenodd" d="M25.8537 51.5C20.0547 51.5 15.3537 46.799 15.3537 41L35.5649 45C33.9919 48.8149 30.2364 51.5 25.8537 51.5Z" fill="#060709"/>
<path fill-rule="evenodd" clip-rule="evenodd" d="M73.8537 51.5C79.6527 51.5 84.3537 46.799 84.3537 41L64.1425 45C65.7155 48.8149 69.471 51.5 73.8537 51.5Z" fill="#060709"/>
</svg>
