<?xml version="1.0" standalone="no"?>
<!DOCTYPE svg PUBLIC "-//W3C//DTD SVG 1.1//EN" "http://www.w3.org/Graphics/SVG/1.1/DTD/svg11.dtd">
<svg xmlns="http://www.w3.org/2000/svg" viewBox="0 0 397.52 83.29" width="397.5199890136719" height="83.29000091552734"><defs><style>.cls-1{fill:#fff;}.cls-2{fill:none;}.cls-3{fill:#3490bf;}.cls-4{fill:#010101;}.cls-5{fill:#231f20;}.cls-6{fill:#d7c29c;}.cls-7{fill:#e3d5b1;}.cls-8{fill:#130c0e;}.cls-9{fill:#4a4f55;}</style></defs><g id="Layer_2" data-name="Layer 2"><g id="Layer_1-2" data-name="Layer 1"><path class="cls-1" d="M392.64,19.24a10.42,10.42,0,0,0-5-1.82,11,11,0,0,0-8.05,2.37h-.75v.07a22.56,22.56,0,0,0-2.1-1,19.15,19.15,0,0,0-15.6.45A16.27,16.27,0,0,0,352,34.12c0,.18,0,.35,0,.53l-8.69-16h-7.86l-10.4,19.13V18.64H291.83v9.85l-13.19-9.85H243.87V28.5l-13.21-9.86H191.24V23a24.86,24.86,0,0,0-5.2-2.82,24.48,24.48,0,0,0-6.4-1.57H158.3v3.82a26.88,26.88,0,0,0-2.4-1.58h0a24.56,24.56,0,0,0-24.33,0,25.47,25.47,0,0,0-2.83,1.91A23.87,23.87,0,0,0,126.19,21a22.32,22.32,0,0,0-23.44,0,23.88,23.88,0,0,0-8.33,8.78c-.29.52-.55,1-.8,1.58C89.22,13.36,73.54,0,54.93,0c-16.82,0-31.5,10.87-37.3,26.74C14,25.94,9.43,26.17,4,28.83A7.15,7.15,0,0,0,1.55,39.7a22.66,22.66,0,0,0,4.67,4.43,20.71,20.71,0,0,0-1.54,11,7.27,7.27,0,0,0,9.46,6.12,22.56,22.56,0,0,0,4.63-2c6.45,14.26,20.47,24,36.16,24C73.47,83.29,89.1,70,93.57,52.14c.26.58.54,1.16.85,1.72a23.7,23.7,0,0,0,8.36,8.77,22.32,22.32,0,0,0,23.41,0,23.35,23.35,0,0,0,2.53-1.81,24.54,24.54,0,0,0,27.16,1.93,25.25,25.25,0,0,0,2.42-1.59v3.91h20.3A25.12,25.12,0,0,0,186,63.41a25.6,25.6,0,0,0,5.23-2.84v4.49h51.1l0-11.09,13.81,11.09h34.16V54l5.58,4.49V79.62l6.37-.38a28.4,28.4,0,0,0,4.71-.68,24.78,24.78,0,0,0,10.73-5.63,22.31,22.31,0,0,0,5.69-7.79h9.24L336,59h6.77l3.4,6.15h17a22.66,22.66,0,0,0,4.93.57,18,18,0,0,0,12.47-4.53c2.45-2.18,5.36-6.2,5.36-13a16.78,16.78,0,0,0-2.32-9.1,11.15,11.15,0,0,0,2.9.39,11,11,0,0,0,6.16-20.2Z"/><path class="cls-2" d="M183.24,34.83a10.48,10.48,0,0,0-3.3-2.18,10.29,10.29,0,0,0-4-.81h-2.76v20h2.76a10.15,10.15,0,0,0,4-.81,10.65,10.65,0,0,0,3.3-2.22,10.36,10.36,0,0,0,2.2-3.23,9.5,9.5,0,0,0,.76-3.76,9.83,9.83,0,0,0-.79-3.82A10,10,0,0,0,183.24,34.83Z"/><path class="cls-2" d="M148.65,33a9.1,9.1,0,0,0-4.91-1.45A9,9,0,0,0,138.82,33a10.57,10.57,0,0,0-4.91,8.8,10,10,0,0,0,1.34,5,10.64,10.64,0,0,0,3.57,3.84,9.06,9.06,0,0,0,9.8,0,10.81,10.81,0,0,0,3.6-3.84,10.07,10.07,0,0,0,0-10A10.53,10.53,0,0,0,148.65,33Z"/><path class="cls-3" d="M119.05,50.63a8,8,0,0,1-9.14,0,10.43,10.43,0,0,1-3.35-3.82,10.63,10.63,0,0,1-1.25-5,10.8,10.8,0,0,1,1.23-5A10.37,10.37,0,0,1,109.88,33a8.05,8.05,0,0,1,9.19,0,9.31,9.31,0,0,1,2,1.88l5.6-5.79a17.33,17.33,0,0,0-3.67-3,16.31,16.31,0,0,0-17.1,0,17.8,17.8,0,0,0-6.26,6.6,19.25,19.25,0,0,0,0,18.25,17.66,17.66,0,0,0,6.26,6.58,16.31,16.31,0,0,0,17.1,0,17.63,17.63,0,0,0,3.72-3.08l-5.6-5.79A9.72,9.72,0,0,1,119.05,50.63Z"/><path class="cls-3" d="M152.9,26.08a18.56,18.56,0,0,0-18.33,0,18.26,18.26,0,0,0-6.7,6.59,17.82,17.82,0,0,0-2.47,9.15,17.57,17.57,0,0,0,2.47,9.11,18.49,18.49,0,0,0,25,6.6,17.83,17.83,0,0,0,6.67-6.6A17.48,17.48,0,0,0,162,41.82a17.72,17.72,0,0,0-2.47-9.15A18.1,18.1,0,0,0,152.9,26.08Zm-.68,20.72a10.81,10.81,0,0,1-3.6,3.84,9.06,9.06,0,0,1-9.8,0,10.64,10.64,0,0,1-3.57-3.84,10,10,0,0,1,0-10A10.2,10.2,0,0,1,138.82,33a9,9,0,0,1,4.92-1.45A9.1,9.1,0,0,1,148.65,33a10.53,10.53,0,0,1,3.57,3.81,10.07,10.07,0,0,1,0,10Z"/><path class="cls-3" d="M189.67,29.42a19,19,0,0,0-13-5H164.3V59.14h12.39a19.13,19.13,0,0,0,7.12-1.32,18.49,18.49,0,0,0,5.86-3.66,17,17,0,0,0,3.94-5.55A16.45,16.45,0,0,0,195,41.82,16.83,16.83,0,0,0,193.61,35,17.23,17.23,0,0,0,189.67,29.42Zm-4.25,16.16a10.36,10.36,0,0,1-2.2,3.23,10.65,10.65,0,0,1-3.3,2.22,10.15,10.15,0,0,1-4,.81h-2.76v-20h2.76a10.29,10.29,0,0,1,4,.81,10.48,10.48,0,0,1,3.3,2.18A10,10,0,0,1,185.39,38a9.83,9.83,0,0,1,.79,3.82A9.5,9.5,0,0,1,185.42,45.58Z"/><polygon class="cls-3" points="197.24 59.18 219.26 59.18 219.26 51.87 205.74 51.87 205.74 45.18 214.59 45.18 212.61 37.87 205.74 37.87 205.74 31.86 219.26 31.86 219.26 24.5 197.24 24.5 197.24 59.18"/><polygon class="cls-4" points="249.87 40.47 227.77 23.97 227.77 59.07 236.33 59.07 236.3 41.45 258.37 59.17 258.37 24.51 249.87 24.46 249.87 40.47"/><polygon class="cls-4" points="262.8 59.15 271.31 59.17 271.31 24.51 262.8 24.51 262.8 59.15"/><polygon class="cls-4" points="306.33 59.16 306.33 24.5 297.83 24.45 297.83 40.46 275.73 23.96 275.73 59.06 284.29 59.06 284.26 41.44 306.33 59.16"/><path class="cls-4" d="M310.83,57.58h0a14.2,14.2,0,0,1-.32,1.66,9,9,0,0,1-2.64,4,10.46,10.46,0,0,1-4.42,2.34l-.08,0h-.09l-.32.05-1.08.17v7.43a21.1,21.1,0,0,0,3.64-.52,18.73,18.73,0,0,0,8.17-4.27,16.16,16.16,0,0,0,4.79-7.31A13.05,13.05,0,0,0,319,58h.05V24.51h-8.24Z"/><path class="cls-4" d="M320.28,59.14h8.78l3.4-6.15h13.85l3.4,6.15h8.78L339.4,24ZM336,46.58l3.42-6.16,3.39,6.16Z"/><path class="cls-4" d="M378,41.55a11.26,11.26,0,0,0-4.5-3.25c-1.71-.66-3.38-1.33-5-2s-2.39-1.62-2.39-2.79a2.3,2.3,0,0,1,1.1-2,3.74,3.74,0,0,1,2.24-.76,6.13,6.13,0,0,1,2.84.63,12.34,12.34,0,0,1,2.66,2l4.18-6a14.51,14.51,0,0,0-4.62-3,14.06,14.06,0,0,0-5.28-1,12.16,12.16,0,0,0-5.45,1.27,10.43,10.43,0,0,0-4.18,3.72A10.17,10.17,0,0,0,358,34.12q0,4.27,1.86,6.42a11.6,11.6,0,0,0,4.47,3.26l1.3.53,1.27.52,2.49,1c1.61.7,2.42,1.64,2.42,2.83a2.53,2.53,0,0,1-1.29,2.3,5.23,5.23,0,0,1-2.77.81A7,7,0,0,1,362,49.05l-4.59,6.55a13.74,13.74,0,0,0,4.93,3.08,16.67,16.67,0,0,0,5.77,1,12.17,12.17,0,0,0,8.48-3q3.34-3,3.35-8.55Q379.9,43.8,378,41.55Z"/><path class="cls-5" d="M391.42,28.28A4.78,4.78,0,0,1,390,31.75a4.85,4.85,0,0,1-6.9,0,4.93,4.93,0,0,1,0-6.94,4.85,4.85,0,0,1,6.9,0A4.76,4.76,0,0,1,391.42,28.28Zm-7.53-2.67a3.79,3.79,0,0,0,0,5.34,3.76,3.76,0,0,0,5.3-5.34,3.72,3.72,0,0,0-5.3,0Zm.94,5.21v-5h1.42a3.32,3.32,0,0,1,1.05.15,1.35,1.35,0,0,1,.71.51,1.55,1.55,0,0,1,.25.9,1.43,1.43,0,0,1-.22.77,1.17,1.17,0,0,1-.59.51l1.26,2.2h-1.45l-1.17-2.26h0v2.25Zm1.24-2.55a1.52,1.52,0,0,0,.52-.07.61.61,0,0,0,.33-.24.77.77,0,0,0,.11-.42.56.56,0,0,0-.24-.54,1.5,1.5,0,0,0-.72-.14Z"/><path class="cls-2" d="M54.93,36.33v11h0v-11Z"/><path class="cls-2" d="M84,48.69h0Z"/><path class="cls-6" d="M25.86,34.59a27.74,27.74,0,0,0-.77,7h0a38.31,38.31,0,0,0,.79,7,281.92,281.92,0,0,1,29.05-1.35v-11A248.12,248.12,0,0,1,25.86,34.59Z"/><path class="cls-7" d="M84.81,41.64h0a39.1,39.1,0,0,0-.78-7A218.34,218.34,0,0,1,55,36.33v11c8.63,0,18.59.35,29,1.4h.08A28.24,28.24,0,0,0,84.81,41.64Z"/><path class="cls-8" d="M54.93,6C38.27,6,24.42,18.61,21.55,35.24c-2.83-2.41-7.71-4.55-14.89-1A1.15,1.15,0,0,0,6.25,36c1.49,1.88,5,5.48,10.17,5.55-3.17,1.84-6.57,5.56-5.77,13a1.28,1.28,0,0,0,1.67,1.05c2.53-.81,7.6-3.08,9.07-8.5,2.5,17.1,16.56,30.2,33.54,30.2,18.74,0,33.93-16,33.93-35.65S73.67,6,54.93,6ZM84,48.69c-10.43-1-20.39-1.4-29-1.4h0a281.92,281.92,0,0,0-29,1.35,38.31,38.31,0,0,1-.79-7h0a27.74,27.74,0,0,1,.77-7,248.12,248.12,0,0,0,29.07,1.74h0A218.34,218.34,0,0,0,84,34.64a39.1,39.1,0,0,1,.78,7h0a28.24,28.24,0,0,1-.76,7H84Z"/><path class="cls-9" d="M28,55.68s6.8,15.77,23.76,17.64A29.07,29.07,0,0,0,72.9,67.05S45.25,78,28,55.68Z"/><path class="cls-9" d="M81.55,28S74.75,12.27,57.8,10.4a29.09,29.09,0,0,0-21.19,6.27S64.26,5.74,81.55,28Z"/><path class="cls-8" d="M45.51,40.88,34.67,39.59a.6.6,0,0,0-.55,1c4.22,5,9.37,2.73,11.63,1.3a.54.54,0,0,0-.24-1Z"/><path class="cls-8" d="M64.14,41.87c2.25,1.43,7.4,3.75,11.62-1.3a.6.6,0,0,0-.55-1L64.37,40.88a.53.53,0,0,0-.23,1Z"/></g></g></svg>